<?xml version="1.0" encoding="UTF-8" standalone="no"?>
<!-- Created with Inkscape (http://www.inkscape.org/) -->

<svg
   width="82.30162mm"
   height="82.163879mm"
   viewBox="0 0 82.301619 82.163879"
   version="1.1"
   id="svg1"
   xml:space="preserve"
   sodipodi:docname="taxonopy_logo.svg"
   inkscape:version="1.4.2 (f4327f4, 2025-05-13)"
   xmlns:inkscape="http://www.inkscape.org/namespaces/inkscape"
   xmlns:sodipodi="http://sodipodi.sourceforge.net/DTD/sodipodi-0.dtd"
   xmlns:xlink="http://www.w3.org/1999/xlink"
   xmlns="http://www.w3.org/2000/svg"
   xmlns:svg="http://www.w3.org/2000/svg"><sodipodi:namedview
     id="namedview1"
     pagecolor="#ffffff"
     bordercolor="#000000"
     borderopacity="0.25"
     inkscape:showpageshadow="2"
     inkscape:pageopacity="0.0"
     inkscape:pagecheckerboard="0"
     inkscape:deskcolor="#d1d1d1"
     inkscape:document-units="mm"
     showgrid="false"
     inkscape:clip-to-page="false"
     inkscape:zoom="1.0721378"
     inkscape:cx="416.45766"
     inkscape:cy="231.77991"
     inkscape:window-width="1920"
     inkscape:window-height="1111"
     inkscape:window-x="-9"
     inkscape:window-y="-9"
     inkscape:window-maximized="1"
     inkscape:current-layer="svg1"
     inkscape:export-bgcolor="#ffffff00" /><defs
     id="defs1"><linearGradient
       id="linearGradient1"
       inkscape:collect="always"><stop
         style="stop-color:#c1d6b3;stop-opacity:1;"
         offset="0"
         id="stop1" /><stop
         style="stop-color:#95bc7e;stop-opacity:1;"
         offset="1"
         id="stop2" /></linearGradient><linearGradient
       inkscape:collect="always"
       xlink:href="#linearGradient1"
       id="linearGradient2"
       x1="0"
       y1="40.958549"
       x2="253.67674"
       y2="40.958549"
       gradientUnits="userSpaceOnUse"
       gradientTransform="scale(0.32443494,1.0030126)" /></defs><rect
     style="fill:url(#linearGradient2);fill-opacity:1;stroke:#d65b09;stroke-width:0;stroke-dasharray:none"
     id="rect118"
     width="82.30162"
     height="82.163879"
     x="0"
     y="0"
     ry="12.578836"
     inkscape:export-filename="taxonopy_1080.png"
     inkscape:export-xdpi="108.13762"
     inkscape:export-ydpi="108.13762" /><g
     inkscape:label="Layer 1"
     inkscape:groupmode="layer"
     id="layer1"
     transform="translate(-33.325826,-52.276984)"><g
       id="g1"
       transform="translate(-3.3422848,-2.7145928)"><path
         style="fill:#357b95;fill-opacity:1;stroke-width:0.933371"
         d="m 95.351053,69.855037 c -1.324712,-0.893431 -1.755353,-2.786265 -1.00612,-4.422287 0.403775,-0.88168 1.926933,-2.875 2.196877,-2.875 0.34608,0 1.77524,1.711428 2.278517,2.728538 0.910038,1.839166 0.46595,3.764552 -1.078394,4.67549 l -0.619197,0.365234 -0.0027,-1.554889 c -0.0032,-1.804275 -0.135384,-2.447129 -0.503486,-2.447129 -0.308463,0 -0.461667,0.76596 -0.528393,2.641755 l -0.04813,1.352965 z"
         id="path118" /><path
         style="fill:#809351;fill-opacity:1;stroke-width:0.933371"
         d="m 57.011998,69.894848 c -2.041977,-1.253558 -1.838546,-4.095419 0.475028,-6.635976 l 0.715692,-0.785909 0.887374,0.984185 c 2.082754,2.309983 2.343949,4.578842 0.7035,6.110939 -0.92058,0.859783 -1.036453,0.72168 -1.099151,-1.309951 -0.05193,-1.682855 -0.08906,-1.834044 -0.450308,-1.834044 -0.360042,0 -0.402124,0.165231 -0.492134,1.932308 l -0.09843,1.932308 z"
         id="path117" /><path
         style="fill:#367e97;fill-opacity:1;stroke-width:0.933371"
         d="m 87.673759,70.762528 c -1.972834,-1.244688 -1.789547,-3.974187 0.438034,-6.523131 l 0.827606,-0.947002 0.849601,0.971021 c 2.211203,2.527211 2.440525,4.95509 0.60536,6.409054 -0.835364,0.661842 -0.948678,0.539626 -0.951605,-1.0264 -0.0032,-1.672664 -0.141171,-2.329737 -0.489447,-2.329737 -0.348276,0 -0.486318,0.657073 -0.489446,2.329737 -0.0029,1.54109 -0.03813,1.590887 -0.790103,1.116458 z"
         id="path116" /><path
         style="fill:#869c52;fill-opacity:1;stroke-width:0.933371"
         d="m 64.610662,70.781357 c -0.287842,-0.157475 -0.725304,-0.615436 -0.972137,-1.017708 -0.894239,-1.457364 -0.42032,-3.303306 1.391879,-5.421483 l 0.763356,-0.892241 0.624837,0.594827 c 1.538024,1.464158 2.344326,3.31216 2.075308,4.756513 -0.138858,0.74552 -1.37165,2.282273 -1.830853,2.282273 -0.104796,0 -0.248181,-0.817976 -0.318637,-1.817717 -0.139592,-1.980803 -0.16345,-2.054215 -0.611352,-1.881097 -0.285921,0.110507 -0.362697,0.762484 -0.383034,3.252694 -0.0042,0.518155 -0.04192,0.52549 -0.739367,0.143939 z"
         id="path115" /><path
         style="fill:#357d96;fill-opacity:1;stroke-width:0.933371"
         d="m 101.96901,76.078505 c -0.054,-0.08815 0.42945,-0.774971 1.07448,-1.526336 0.64504,-0.751366 1.14358,-1.454405 1.10787,-1.562307 -0.15679,-0.473801 -0.57561,-0.258643 -1.8079,0.928802 -1.29278,1.245737 -1.3194,1.259778 -1.49677,0.789883 -0.912763,-2.41809 1.15923,-4.452343 4.74075,-4.654435 l 1.0827,-0.06108 0.0633,0.666403 c 0.19986,2.10361 -0.79679,4.587309 -2.11663,5.274761 -0.61211,0.318818 -2.47833,0.420538 -2.64783,0.144313 z"
         id="path114" /><path
         style="fill:#81974f;fill-opacity:1;stroke-width:0.933371"
         d="m 50.151195,75.861042 c -1.208,-0.741942 -1.847402,-2.098382 -1.994998,-4.232239 l -0.106287,-1.53664 h 0.971039 c 3.217837,0 5.387129,1.649423 5.134802,3.90424 -0.05379,0.480686 -0.150102,0.926648 -0.214024,0.991029 -0.06392,0.06435 -0.702607,-0.435432 -1.419301,-1.110706 -1.234905,-1.163539 -1.642613,-1.359579 -1.805289,-0.868027 -0.03914,0.118273 0.460942,0.818792 1.111293,1.556725 0.65035,0.737932 1.136676,1.416307 1.080723,1.507489 -0.198743,0.323904 -2.126795,0.175778 -2.757958,-0.211871 z"
         id="path113" /><path
         style="fill:#377f98;fill-opacity:1;stroke-width:0.933371"
         d="m 109.08159,87.403756 c -0.48923,-0.128773 -0.47368,-0.159161 0.85181,-1.665039 1.03665,-1.17774 1.30773,-1.769063 0.80984,-1.766562 -0.0748,3.74e-4 -0.7467,0.533068 -1.49306,1.183753 -0.74637,0.650694 -1.4329,1.135849 -1.52561,1.078136 -0.26304,-0.163741 -0.19799,-1.807872 0.0999,-2.526049 0.59207,-1.427276 2.00206,-2.106672 4.51586,-2.175944 l 1.41651,-0.03906 -0.0606,1.09052 c -0.20019,3.599399 -2.0222,5.502584 -4.61463,4.820219 z"
         id="path112" /><path
         style="fill:#678047;fill-opacity:1;stroke-width:0.933371"
         d="M 43.810747,87.206985 C 42.538885,86.575709 41.710245,84.894296 41.58106,82.682672 l -0.06949,-1.189655 1.533415,0.03681 c 3.069089,0.07363 4.673593,1.303506 4.664462,3.575381 -0.0053,1.319308 -0.196951,1.324854 -1.662891,0.04815 -0.746341,-0.650011 -1.424571,-1.181833 -1.507178,-1.181833 -0.519455,0 -0.236795,0.586612 0.898065,1.863777 1.214731,1.367054 1.268417,1.466722 0.85073,1.579449 -0.784333,0.211684 -1.804838,0.126113 -2.477425,-0.207712 z"
         id="path111" /><path
         style="fill:#67946d;fill-opacity:1;stroke-width:0.933371"
         d="m 55.980315,90.514572 c -0.491106,-0.494653 -0.504138,-1.206638 -0.03282,-1.792904 0.353408,-0.439591 0.462578,-0.450869 5.26654,-0.54399 l 4.905652,-0.0951 1.180418,0.991816 c 0.649229,0.545499 1.490462,1.18159 1.869406,1.413526 l 0.688987,0.421718 -6.742238,7.4e-4 c -6.480287,7.12e-4 -6.757535,-0.01471 -7.135946,-0.395808 z"
         id="path110" /><path
         style="fill:#889d52;fill-opacity:1;stroke-width:0.933371"
         d="m 74.251723,90.892704 c -2.586025,-0.344288 -4.382732,-1.301576 -6.833398,-3.640849 -2.150095,-2.052361 -2.239314,-2.098261 -4.449518,-2.28899 -2.167998,-0.187094 -3.291784,-0.638676 -4.421789,-1.776838 -0.794161,-0.799898 -1.582434,-2.270255 -1.582434,-2.951702 0,-0.219702 -0.325382,-0.44997 -0.953225,-0.674572 -0.524273,-0.187553 -1.361586,-0.703048 -1.860696,-1.145562 l -0.907473,-0.804553 1.005575,-0.976248 1.005574,-0.976247 0.707482,0.626095 0.707482,0.626096 0.05458,-2.685988 0.05458,-2.685987 1.372606,0.01265 c 0.754933,0.0066 1.37312,0.06098 1.373749,0.120071 0.08963,8.423355 0.07614,8.202472 0.547628,8.966193 0.578253,0.936652 1.72746,1.475949 3.459065,1.623251 1.328389,0.112999 1.347976,0.107706 1.20652,-0.325825 -0.07909,-0.24238 -0.18638,-2.492842 -0.238434,-5.001027 l -0.09464,-4.56035 h 1.391061 1.391061 c 0.289904,8.793825 -0.03736,3.587137 0.305755,9.133851 0.569509,2.578319 2.317282,4.72662 4.802055,5.902505 1.134333,0.536806 1.566149,0.62706 3.321586,0.69428 l 2.017751,0.07728 v 1.416158 1.416157 l -1.033482,0.02763 c -0.568415,0.01517 -1.625472,-0.05115 -2.349017,-0.147489 z"
         id="path109" /><path
         style="fill:#648b5a;fill-opacity:1;stroke-width:0.933371"
         d="m 97.351771,92.560918 c -2.072927,-1.421852 -2.675094,-1.52273 -8.841384,-1.481092 l -5.364263,0.03625 v -1.508239 -1.508238 l 5.75797,0.07531 c 5.670187,0.07419 5.781464,0.08356 7.298909,0.616448 1.770555,0.621786 3.675684,1.774018 3.675684,2.223061 0,0.352194 -0.90121,2.209508 -1.128165,2.325054 -0.08326,0.04243 -0.712699,-0.307952 -1.398751,-0.778521 z"
         id="path108" /><path
         style="fill:#397b91;fill-opacity:1;stroke-width:0.933371"
         d="m 109.60921,95.304993 c -0.65045,-0.306079 -1.78324,-1.559506 -1.58755,-1.756614 0.0273,-0.02745 0.79729,-0.107294 1.71123,-0.177493 2.70963,-0.208115 2.70556,-0.747937 -0.007,-0.961691 -0.97678,-0.077 -1.77596,-0.186382 -1.77596,-0.243148 0,-0.373599 0.93245,-1.290289 1.68643,-1.65792 1.48821,-0.725633 3.07711,-0.247458 4.92388,1.481823 l 0.96856,0.906957 -0.98427,0.8964 c -1.82646,1.663409 -3.51408,2.180356 -4.93507,1.511686 z"
         id="path107" /><path
         style="fill:#627d46;fill-opacity:1;stroke-width:0.933371"
         d="m 43.578533,95.544938 c -1.350435,-0.522259 -3.217712,-1.828743 -3.437233,-2.404939 -0.182931,-0.480152 0.41671,-1.202085 1.683376,-2.026684 1.971995,-1.283769 3.707516,-1.246515 4.885534,0.104867 0.334699,0.38395 0.608544,0.771993 0.608544,0.862303 0,0.0903 -0.819404,0.243346 -1.820897,0.340082 -1.409732,0.136164 -1.820897,0.243036 -1.820897,0.473296 0,0.233612 0.36691,0.319595 1.710324,0.400838 1.982886,0.119912 2.142166,0.211721 1.610842,0.928512 -0.79723,1.075522 -2.427191,1.705524 -3.419593,1.321725 z"
         id="path106" /><path
         style="fill:#398199;fill-opacity:1;stroke-width:0.933371"
         d="m 108.83553,103.01222 c -0.92623,-0.21283 -1.40822,-0.54234 -1.85251,-1.26642 -0.22622,-0.36866 -0.41131,-0.72669 -0.41131,-0.79561 0,-0.0689 0.80004,-0.1253 1.77787,-0.1253 1.4208,0 1.80126,-0.0614 1.89442,-0.30596 0.18487,-0.48524 -0.0304,-0.558547 -1.90584,-0.648857 -0.97155,-0.04684 -1.76645,-0.156529 -1.76645,-0.243879 0,-0.300084 1.03165,-1.393377 1.58851,-1.683427 1.39247,-0.725278 3.49645,-0.06417 5.10733,1.604891 l 0.88303,0.914902 -0.98427,0.88081 c -1.53639,1.37491 -3.0581,1.96128 -4.33078,1.66885 z"
         id="path105" /><path
         style="fill:#648043;fill-opacity:1;stroke-width:0.933371"
         d="m 45.021861,103.01596 c -0.823213,-0.20006 -2.14111,-0.99361 -3.116584,-1.87663 l -0.787415,-0.71278 1.072401,-0.99176 c 0.589821,-0.54547 1.437192,-1.169636 1.883048,-1.387034 1.506357,-0.734476 3.402072,-0.376315 4.233587,0.799879 0.603339,0.853432 0.504019,0.98568 -0.742078,0.988078 -1.56895,0.0028 -2.608312,0.201567 -2.608312,0.498237 0,0.38279 0.480608,0.49096 2.181492,0.49096 1.724652,0 1.873412,0.1384 1.147641,1.06774 -0.732689,0.93819 -2.095462,1.40723 -3.26378,1.12331 z"
         id="path104" /><path
         style="fill:#7d9855;fill-opacity:1;stroke-width:0.933371"
         d="m 73.10016,103.87121 c -0.0059,-9.037302 -0.03722,-9.976614 -0.364848,-10.931897 -0.346659,-1.010794 -0.346659,-1.041323 4e-6,-0.930507 0.197133,0.06304 0.914156,0.176416 1.593384,0.251982 1.171382,0.130328 1.241454,0.168023 1.361108,0.732228 0.06938,0.327155 0.136629,4.347851 0.149439,8.934884 l 0.02329,8.34007 -0.605644,0.58235 c -0.333104,0.32029 -0.953193,1.10556 -1.377976,1.74503 l -0.772332,1.16268 z"
         id="path103" /><path
         style="fill:#377a95;fill-opacity:1;stroke-width:0.933371"
         d="m 73.119649,123.37901 c 0.07656,-4.25476 0.19148,-6.44486 0.366773,-6.98945 0.692132,-2.15028 2.147824,-4.25521 3.815679,-5.51746 2.004664,-1.51716 3.533497,-2.08762 6.139303,-2.29078 l 1.574831,-0.12279 0.688987,-1.43236 c 1.454796,-3.02445 2.924159,-4.11651 5.965141,-4.4334 1.946938,-0.20288 2.513353,-0.46456 3.098791,-1.43165 0.723945,-1.195884 0.297094,-2.798883 -0.972829,-3.653374 -0.656786,-0.441933 -0.771564,-0.450073 -6.345262,-0.450073 h -5.676378 l -0.05248,5.182887 -0.05248,5.18289 -0.885841,0.23341 c -0.487213,0.12838 -1.088055,0.30129 -1.335204,0.38426 l -0.449363,0.15084 0.05565,-10.871027 0.05565,-10.871018 0.526055,-1.003956 c 1.025555,-1.957244 2.603593,-3.000047 4.936351,-3.262052 1.963853,-0.220573 2.970114,-0.805134 2.983656,-2.617325 0.136797,-2.433275 0.112957,-4.771536 0.01865,-7.194245 h 1.42719 1.427189 v 3.686159 c 0,2.69676 -0.07869,3.947406 -0.29315,4.659475 -0.449368,1.492005 -0.466847,1.469018 1.11684,1.469018 1.707697,0 2.903997,-0.504198 3.499668,-1.474975 0.37161,-0.605619 0.40113,-0.973026 0.40113,-4.992391 v -4.338671 h 1.47687 1.47687 l -0.129211,2.726295 c -0.144805,3.055343 -0.113318,3.116165 1.044131,2.016662 0.502656,-0.477492 0.773552,-0.623436 0.8281,-0.446121 0.04458,0.144932 0.469864,0.633206 0.945054,1.085068 l 0.86399,0.821546 -0.90631,0.803523 c -0.49846,0.441942 -1.342177,0.949344 -1.874919,1.127577 -0.726143,0.242924 -0.968623,0.422402 -0.968623,0.71694 0,0.689475 -0.976644,2.501554 -1.686681,3.129476 -1.634555,1.445524 -1.836526,1.489982 -7.270162,1.600217 -5.518942,0.111977 -5.786084,0.173774 -6.624807,1.532547 -0.438764,0.710814 -0.461925,0.922319 -0.461925,4.218159 v 3.46983 l 5.90561,0.0028 c 6.706614,0.0028 7.017486,0.06407 8.688759,1.711829 l 0.814611,0.803139 0.842991,-0.763056 c 1.356309,-1.227686 2.459816,-2.902627 3.116296,-4.730002 1.0488,-2.91945 2.0462,-4.27797 3.79681,-5.171476 1.1477,-0.585788 1.34321,-0.594349 1.34321,-0.05883 0,0.472996 0.77427,1.960186 1.02052,1.960186 0.0883,0 0.1606,0.08927 0.1606,0.198269 0,0.109055 -0.18156,0.198279 -0.40349,0.198279 -0.95717,0 -2.0188,0.906658 -2.72795,2.329738 l -0.41993,0.842678 h 1.33277 1.33276 v 1.387924 1.387934 h -1.33509 c -1.6551,0 -2.48775,0.337375 -3.21715,1.303552 -0.96559,1.279029 -2.420511,2.795445 -3.212408,3.348195 -0.636174,0.444059 -0.779528,0.676314 -0.894638,1.44948 -0.290315,1.94994 -1.567027,3.72167 -3.209011,4.45324 -0.479597,0.21369 -1.605424,0.45585 -2.501837,0.53815 -2.269083,0.2083 -3.405908,1.00046 -3.928082,2.73712 l -0.134138,0.44612 h 2.562674 c 1.409471,0 3.032102,-0.10032 3.605846,-0.22294 3.845707,-0.82186 6.653504,-4.28626 6.653504,-8.20941 0,-1.099838 0.0662,-1.321039 0.54304,-1.813172 0.29866,-0.30828 0.81371,-0.906583 1.14452,-1.329566 l 0.60148,-0.76906 0.2969,1.264743 c 0.28856,1.229204 0.31587,1.266411 0.97166,1.32359 l 0.67475,0.05883 v 1.477825 1.47781 l -0.73445,-2e-5 c -0.64191,-2e-5 -0.74905,0.0687 -0.85028,0.54524 -0.80499,3.78943 -3.52184,6.95549 -7.17229,8.35817 -1.241332,0.47698 -1.487962,0.49667 -7.680261,0.61334 -5.898222,0.11113 -6.487816,0.15399 -7.551342,0.54887 -2.293183,0.85145 -4.044825,2.62302 -4.914145,4.97005 -0.381499,1.02998 -0.422164,1.60791 -0.487148,6.92336 l -0.0709,5.79956 -1.411594,2.3e-4 -1.411592,2.1e-4 z"
         id="path90" /><path
         style="fill:#637e45;fill-opacity:1;stroke-width:0.933371"
         d="m 67.003386,114.35724 c -7.17e-4,-14.835137 -0.01056,-15.233914 -0.391908,-15.863879 -0.70982,-1.172606 -1.401747,-1.434114 -3.79682,-1.434948 -2.673097,-9.37e-4 -3.061055,0.164172 -4.660967,1.983613 -1.801995,2.049244 -2.998433,2.594944 -5.980336,2.727694 l -2.197077,0.0978 0.03471,-1.44924 0.03471,-1.449244 1.853338,-0.04206 c 1.940205,-0.04403 2.538929,-0.235776 3.835214,-1.228258 0.772999,-0.591839 0.810794,-0.839324 0.128177,-0.839324 -0.795526,0 -1.867612,-0.600757 -2.808083,-1.573558 L 52.195333,94.397296 50.396816,94.318048 48.5983,94.2388 v -1.366445 -1.366454 h 1.332079 1.332078 l -0.48577,-0.96555 c -0.588331,-1.169403 -1.462363,-1.948308 -2.381034,-2.121904 -0.579323,-0.109467 -0.988852,-0.4787 -0.535552,-0.482869 0.29322,-0.0028 1.033482,-1.324198 1.033482,-1.844957 0,-0.657552 0.15456,-0.661729 1.37794,-0.03728 1.769196,0.902995 2.825939,2.312661 3.641594,4.857773 1.041822,3.25083 1.071904,3.2649 6.988541,3.268628 l 4.626061,0.0028 1.118444,0.553208 c 1.26713,0.626751 2.191832,1.587384 2.797831,2.906551 0.408729,0.88974 0.415257,1.118557 0.468361,16.417389 l 0.05386,15.51508 h -1.481043 -1.481044 z"
         id="path89" /><path
         style="fill:#3e7579;fill-opacity:1;stroke-width:0.933371"
         d="m 79.011753,122.19866 4.44e-4,-7.47539 0.870947,-0.60356 c 0.479021,-0.33195 1.09911,-0.69092 1.377976,-0.79771 l 0.507029,-0.19417 v 8.20727 8.20727 l -1.37842,0.0658 -1.378419,0.0659 z"
         id="path1" /></g></g></svg>
